#!OML:ASF H:\Pregnant\Project 1\Capture day 1\Session 1\femalepreg.ASF
:FULLY-SPECIFIED
:DEGREES
812
root -8.78872 15.7586 6.96253 22.8924 -0.733596 -1.35885
lowerback -11.8672 -3.50586 -9.69573
upperback -5.30899 -3.57043 -1.33255
thorax 1.52356 -1.67326 3.56313
lowerneck -18.2233 -8.19272 -6.96639
upperneck 22.1797 -11.185 6.53273
head 10.9517 -4.94822 1.79039
rclavicle 2.16675e-014 3.18055e-014
rhumerus -51.008 8.85591 -85.4176
rradius 23.1107
rwrist -8.24049
rhand -17.7854 -21.8768
rfingers 7.12502
rthumb 8.47739 -51.6867
lclavicle 2.16675e-014 3.18055e-014
lhumerus -27.0103 -8.23706 84.8852
lradius 41.0044
lwrist 37.409
lhand -28.7912 -7.62477
lfingers 7.12502
lthumb -2.15006 22.3441
rfemur -50.5342 6.88819 20.4451
rtibia 70.9919
rfoot -8.22908 -10.642
rtoes -16.502
lfemur -38.7944 -9.19866 -20.1841
ltibia 37.8474
lfoot -16.5871 -0.457628
ltoes -19.3836
813
root -8.78552 15.7697 7.12887 23.0033 -0.444559 -1.36458
lowerback -11.9262 -3.59712 -9.71349
upperback -5.34141 -3.68704 -1.18624
thorax 1.54681 -1.72967 3.707
lowerneck -18.2399 -8.23283 -6.93789
upperneck 22.1578 -11.2372 6.49548
head 10.9464 -4.97371 1.76342
rclavicle 1.45113e-014 -3.33958e-014
rhumerus -50.7733 6.52153 -82.8845
rradius 20.9472
rwrist -4.69737
rhand -17.482 -21.8872
rfingers 7.12502
rthumb 8.77021 -51.685
lclavicle 1.45113e-014 -3.33958e-014
lhumerus -26.7224 -8.31781 85.2828
lradius 42.7385
lwrist 38.7384
lhand -28.5868 -7.30239
lfingers 7.12502
lthumb -1.95269 22.6684
rfemur -51.5892 7.04248 20.3981
rtibia 69.8637
rfoot -8.82967 -11.3009
rtoes -16.54
lfemur -38.0436 -9.5006 -20.1757
ltibia 37.4766
lfoot -16.7615 -0.358374
ltoes -19.6774
814
root -8.78187 15.7803 7.29532 23.1193 -0.154131 -1.35515
lowerback -11.9807 -3.68781 -9.7306
upperback -5.37915 -3.80413 -1.03208
thorax 1.56309 -1.78586 3.85894
lowerneck -18.2668 -8.27394 -6.91765
upperneck 22.1306 -11.287 6.45724
head 10.9412 -4.99864 1.7375
rclavicle -1.8487e-014 2.70347e-014
rhumerus -50.7168 4.22714 -80.2805
rradius 19.1861
rwrist -1.11601
rhand -17.3866 -22.0747
rfingers 7.12502
rthumb 8.86225 -51.8686
lclavicle -1.8487e-014 2.70347e-014
lhumerus -26.4578 -8.40614 85.6817
lradius 44.4546
lwrist 40.0389
lhand -28.3663 -6.89318
lfingers 7.12502
lthumb -1.73968 23.0795
rfemur -52.5918 7.21444 20.3001
rtibia 68.5792
rfoot -9.35202 -11.9933
rtoes -16.5796
lfemur -37.2784 -9.7998 -20.1835
ltibia 37.0625
lfoot -16.9105 -0.284668
ltoes -19.9077
815
root -8.7778 15.791 7.46269 23.2362 0.135111 -1.33304
lowerback -12.0365 -3.77612 -9.74253
upperback -5.41631 -3.91855 -0.875427
thorax 1.5809 -1.84087 4.01083
lowerneck -18.2931 -8.31657 -6.90837
upperneck 22.0865 -11.3382 6.43352
head 10.9315 -5.02367 1.71836
rclavicle -6.75868e-015 1.90833e-014
rhumerus -50.8571 2.15321 -77.7989
rradius 17.8585
rwrist 2.18588
rhand -17.4696 -22.4875
rfingers 7.12502
rthumb 8.78218 -52.2847
lclavicle -6.75868e-015 1.90833e-014
lhumerus -26.2176 -8.52076 86.0742
lradius 46.1455
lwrist 41.276
lhand -28.1543 -6.5216
lfingers 7.12502
lthumb -1.53498 23.4526
rfemur -53.5252 7.40367 20.1509
rtibia 67.1404
rfoot -9.79995 -12.707
rtoes -16.6114
lfemur -36.486 -10.0874 -20.2083
ltibia 36.5996
lfoot -17.0173 -0.243625
ltoes -20.1723
816
root -8.77366 15.8009 7.63021 23.3464 0.422387 -1.29321
lowerback -12.0722 -3.86212 -9.75705
upperback -5.45562 -4.03229 -0.718022
thorax 1.58625 -1.89498 4.16612
lowerneck -18.3236 -8.36009 -6.90593
upperneck 22.0306 -11.39 6.41997
head 10.9194 -5.04845 1.70374
rclavicle 3.97569e-016 -3.65764e-014
rhumerus -51.1867 0.492758 -75.6454
rradius 16.9753
rwrist 4.87961
rhand -17.6885 -23.1275
rfingers 7.12502
rthumb 8.57098 -52.9336
lclavicle 3.97569e-016 -3.65764e-014
lhumerus -26.0018 -8.6597 86.4591
lradius 47.8029
lwrist 42.4111
lhand -27.9583 -6.26169
lfingers 7.12502
lthumb -1.34565 23.7138
rfemur -54.389 7.60734 19.9437
rtibia 65.5585
rfoot -10.1636 -13.4463
rtoes -16.5823
lfemur -35.6599 -10.3514 -20.2573
ltibia 36.0833
lfoot -17.0823 -0.252493
ltoes -20.4678
817
root -8.76934 15.8113 7.79883 23.4561 0.70913 -1.23937
lowerback -12.1091 -3.94559 -9.76455
upperback -5.49257 -4.14315 -0.562811
thorax 1.59441 -1.94797 4.31545
lowerneck -18.354 -8.40645 -6.91414
upperneck 21.9559 -11.4465 6.42596
head 10.9027 -5.07417 1.69711
rclavicle 5.84427e-014 1.90833e-014
rhumerus -51.6542 -0.649541 -73.9634
rradius 16.4904
rwrist 6.78106
rhand -17.9684 -23.9499
rfingers 7.12502
rthumb 8.3008 -53.7668
lclavicle 5.84427e-014 1.90833e-014
lhumerus -25.8052 -8.83454 86.8329
lradius 49.4182
lwrist 43.4185
lhand -27.8184 -6.13867
lfingers 7.12502
lthumb -1.21053 23.8376
rfemur -55.1789 7.8291 19.6749
rtibia 63.8314
rfoot -10.4498 -14.1934
rtoes -16.4471
lfemur -34.7945 -10.5887 -20.3266
ltibia 35.5009
lfoot -17.1043 -0.317383
ltoes -20.7821
818
root -8.76506 15.8225 7.96836 23.5558 0.991968 -1.17433
lowerback -12.133 -4.02439 -9.76396
upperback -5.52875 -4.25024 -0.410681
thorax 1.59571 -1.99899 4.45831
lowerneck -18.3868 -8.45021 -6.92356
upperneck 21.8694 -11.5003 6.44167
head 10.8827 -5.09778 1.69455
rclavicle 2.72335e-014 7.95139e-015
rhumerus -52.2152 -1.24831 -72.8156
rradius 16.3471
rwrist 7.83382
rhand -18.228 -24.8388
rfingers 7.12502
rthumb 8.05028 -54.6655
lclavicle 2.72335e-014 7.95139e-015
lhumerus -25.64 -9.04182 87.1918
lradius 50.9979
lwrist 44.2648
lhand -27.7469 -6.04745
lfingers 7.12502
lthumb -1.14146 23.9292
rfemur -55.8826 8.07629 19.3459
rtibia 61.9631
rfoot -10.6387 -14.9347
rtoes -16.1801
lfemur -33.8724 -10.7873 -20.4168
ltibia 34.8426
lfoot -17.094 -0.442118
ltoes -21.1159
